<svg width="924" height="469" viewBox="0 0 924 469" fill="none" xmlns="http://www.w3.org/2000/svg">
<g clip-path="url(#clip0_16_75)">
<rect x="-2" y="3" width="924" height="469" fill="black"/>
<rect x="424" y="183" width="63" height="113.806" rx="4" fill="white"/>
<path d="M219.755 276V203.072H270.953V219.184H245.513V232.116H268.727V245.472H245.513V259.358H270.953V276H219.755ZM280.518 276V203.072H301.718L330.338 241.762V203.072H349.842V276H328.642L300.022 238.9V276H280.518ZM396.024 277.696C388.392 277.696 381.749 276.141 376.096 273.032C370.513 269.923 366.167 265.612 363.058 260.1C359.948 254.588 358.394 248.228 358.394 241.02C358.394 233.317 360.019 226.498 363.27 220.562C366.52 214.626 371.078 209.962 376.944 206.57C382.809 203.178 389.628 201.482 397.402 201.482C405.882 201.482 412.63 203.178 417.648 206.57L414.468 223.212C410.016 221.304 405.387 220.35 400.582 220.35C394.787 220.35 390.229 222.081 386.908 225.544C383.586 229.007 381.926 233.812 381.926 239.96C381.926 246.179 383.41 251.019 386.378 254.482C389.416 257.945 393.268 259.676 397.932 259.676C399.628 259.676 401.041 259.535 402.172 259.252V241.126L420.51 239.006V272.184C416.482 274.021 412.383 275.399 408.214 276.318C404.044 277.237 399.981 277.696 396.024 277.696ZM526.668 277.696C519.036 277.696 512.358 276.177 506.634 273.138C500.981 270.029 496.564 265.683 493.384 260.1C490.275 254.517 488.72 248.016 488.72 240.596C488.72 232.964 490.345 226.215 493.596 220.35C496.917 214.485 501.44 209.891 507.164 206.57C512.959 203.178 519.601 201.482 527.092 201.482C535.431 201.482 541.967 203.107 546.702 206.358L543.84 223.212C541.791 222.223 539.635 221.516 537.374 221.092C535.183 220.597 533.099 220.35 531.12 220.35C525.325 220.35 520.767 222.081 517.446 225.544C514.125 229.007 512.464 233.812 512.464 239.96C512.464 245.755 514.054 250.313 517.234 253.634C520.485 256.885 524.972 258.51 530.696 258.51C532.957 258.51 535.007 258.298 536.844 257.874C538.752 257.45 541.084 256.673 543.84 255.542L546.808 272.29C540.66 275.894 533.947 277.696 526.668 277.696ZM587.353 277.696C579.65 277.696 572.866 276.071 567.001 272.82C561.136 269.569 556.542 265.082 553.221 259.358C549.97 253.634 548.345 247.062 548.345 239.642C548.345 232.151 549.97 225.544 553.221 219.82C556.542 214.096 561.136 209.609 567.001 206.358C572.866 203.107 579.65 201.482 587.353 201.482C595.056 201.482 601.84 203.107 607.705 206.358C613.57 209.538 618.128 213.99 621.379 219.714C624.7 225.438 626.361 232.081 626.361 239.642C626.361 247.062 624.7 253.634 621.379 259.358C618.128 265.082 613.57 269.569 607.705 272.82C601.84 276.071 595.056 277.696 587.353 277.696ZM587.353 258.404C591.805 258.404 595.444 256.673 598.271 253.21C601.168 249.747 602.617 245.189 602.617 239.536C602.617 235.72 601.946 232.363 600.603 229.466C599.331 226.569 597.529 224.307 595.197 222.682C592.936 220.986 590.286 220.138 587.247 220.138C582.795 220.138 579.156 221.94 576.329 225.544C573.502 229.077 572.089 233.741 572.089 239.536C572.089 245.189 573.502 249.747 576.329 253.21C579.156 256.673 582.83 258.404 587.353 258.404ZM634.956 276V203.072H656.156L684.776 241.762V203.072H704.28V276H683.08L654.46 238.9V276H634.956Z" fill="white"/>
<path d="M431.03 276V203.072H482.228V219.184H456.788V232.116H480.002V245.472H456.788V259.358H482.228V276H431.03Z" fill="black"/>
</g>
<defs>
<clipPath id="clip0_16_75">
<rect width="924" height="469" fill="white"/>
</clipPath>
</defs>
</svg>
