<svg width="756" height="118" viewBox="0 0 756 118" fill="none" xmlns="http://www.w3.org/2000/svg">
<rect x="340" y="4" width="63" height="113.806" rx="4" fill="white"/>
<path d="M135.755 97V24.072H186.953V40.184H161.513V53.116H184.727V66.472H161.513V80.358H186.953V97H135.755ZM196.518 97V24.072H217.718L246.338 62.762V24.072H265.842V97H244.642L216.022 59.9V97H196.518ZM312.024 98.696C304.392 98.696 297.749 97.1413 292.096 94.032C286.513 90.9227 282.167 86.612 279.058 81.1C275.948 75.588 274.394 69.228 274.394 62.02C274.394 54.3173 276.019 47.498 279.27 41.562C282.52 35.626 287.078 30.962 292.944 27.57C298.809 24.178 305.628 22.482 313.402 22.482C321.882 22.482 328.63 24.178 333.648 27.57L330.468 44.212C326.016 42.304 321.387 41.35 316.582 41.35C310.787 41.35 306.229 43.0813 302.908 46.544C299.586 50.0067 297.926 54.812 297.926 60.96C297.926 67.1787 299.41 72.0193 302.378 75.482C305.416 78.9447 309.268 80.676 313.932 80.676C315.628 80.676 317.041 80.5347 318.172 80.252V62.126L336.51 60.006V93.184C332.482 95.0213 328.383 96.3993 324.214 97.318C320.044 98.2367 315.981 98.696 312.024 98.696ZM442.668 98.696C435.036 98.696 428.358 97.1767 422.634 94.138C416.981 91.0287 412.564 86.6827 409.384 81.1C406.275 75.5173 404.72 69.016 404.72 61.596C404.72 53.964 406.345 47.2153 409.596 41.35C412.917 35.4847 417.44 30.8913 423.164 27.57C428.959 24.178 435.601 22.482 443.092 22.482C451.431 22.482 457.967 24.1073 462.702 27.358L459.84 44.212C457.791 43.2227 455.635 42.516 453.374 42.092C451.183 41.5973 449.099 41.35 447.12 41.35C441.325 41.35 436.767 43.0813 433.446 46.544C430.125 50.0067 428.464 54.812 428.464 60.96C428.464 66.7547 430.054 71.3127 433.234 74.634C436.485 77.8847 440.972 79.51 446.696 79.51C448.957 79.51 451.007 79.298 452.844 78.874C454.752 78.45 457.084 77.6727 459.84 76.542L462.808 93.29C456.66 96.894 449.947 98.696 442.668 98.696ZM503.353 98.696C495.65 98.696 488.866 97.0707 483.001 93.82C477.136 90.5693 472.542 86.082 469.221 80.358C465.97 74.634 464.345 68.062 464.345 60.642C464.345 53.1513 465.97 46.544 469.221 40.82C472.542 35.096 477.136 30.6087 483.001 27.358C488.866 24.1073 495.65 22.482 503.353 22.482C511.056 22.482 517.84 24.1073 523.705 27.358C529.57 30.538 534.128 34.99 537.379 40.714C540.7 46.438 542.361 53.0807 542.361 60.642C542.361 68.062 540.7 74.634 537.379 80.358C534.128 86.082 529.57 90.5693 523.705 93.82C517.84 97.0707 511.056 98.696 503.353 98.696ZM503.353 79.404C507.805 79.404 511.444 77.6727 514.271 74.21C517.168 70.7473 518.617 66.1893 518.617 60.536C518.617 56.72 517.946 53.3633 516.603 50.466C515.331 47.5687 513.529 45.3073 511.197 43.682C508.936 41.986 506.286 41.138 503.247 41.138C498.795 41.138 495.156 42.94 492.329 46.544C489.502 50.0773 488.089 54.7413 488.089 60.536C488.089 66.1893 489.502 70.7473 492.329 74.21C495.156 77.6727 498.83 79.404 503.353 79.404ZM550.956 97V24.072H572.156L600.776 62.762V24.072H620.28V97H599.08L570.46 59.9V97H550.956Z" fill="white"/>
<path d="M347.03 97V24.072H398.228V40.184H372.788V53.116H396.002V66.472H372.788V80.358H398.228V97H347.03Z" fill="black"/>
</svg>
