<svg width="756" height="161" viewBox="0 0 756 161" fill="none" xmlns="http://www.w3.org/2000/svg">
<rect x="340" y="4" width="63" height="113.806" rx="4" fill="black"/>
<path d="M130.19 24.072H181.388V40.184H155.948V53.434H179.162V66.79H155.948V80.888H181.388V97H130.19V24.072ZM193.231 24.072H214.537L243.581 63.398V24.072H262.555V97H241.355L212.099 59.052V97H193.231V24.072ZM310.274 98.696C303.137 98.696 296.706 97 290.982 93.608C285.258 90.1453 280.771 85.446 277.52 79.51C274.269 73.574 272.644 67.0373 272.644 59.9C272.644 53.0453 274.269 46.756 277.52 41.032C280.841 35.308 285.435 30.7853 291.3 27.464C297.165 24.1427 303.843 22.482 311.334 22.482C315.433 22.482 319.39 22.9413 323.206 23.86C327.093 24.7787 330.591 26.086 333.7 27.782L326.704 44.212C321.899 42.2333 317.411 41.244 313.242 41.244C307.801 41.244 303.596 43.0107 300.628 46.544C297.66 50.0067 296.176 54.5647 296.176 60.218C296.176 63.8927 296.847 67.214 298.19 70.182C299.533 73.0793 301.405 75.376 303.808 77.072C306.281 78.768 309.073 79.616 312.182 79.616C313.878 79.616 315.291 79.4747 316.422 79.192V62.126L334.76 60.006V93.184C326.775 96.8587 318.613 98.696 310.274 98.696ZM443.612 98.696C436.545 98.696 430.115 97.0353 424.32 93.714C418.596 90.322 414.038 85.7287 410.646 79.934C407.325 74.0687 405.664 67.6027 405.664 60.536C405.664 53.328 407.289 46.8267 410.54 41.032C413.791 35.2373 418.243 30.7147 423.896 27.464C429.549 24.1427 435.909 22.482 442.976 22.482C446.792 22.482 450.537 22.9413 454.212 23.86C457.887 24.7787 461.031 26.086 463.646 27.782L460.784 44.212C455.696 42.304 451.103 41.35 447.004 41.35C441.351 41.35 437.005 43.0107 433.966 46.332C430.927 49.5827 429.408 54.282 429.408 60.43C429.408 66.4367 430.998 71.136 434.178 74.528C437.429 77.8493 441.916 79.51 447.64 79.51C449.831 79.51 451.88 79.298 453.788 78.874C455.696 78.45 458.028 77.6727 460.784 76.542L463.752 93.29C457.604 96.894 450.891 98.696 443.612 98.696ZM507.299 98.696C499.667 98.696 492.883 97.0707 486.947 93.82C481.082 90.5693 476.488 86.082 473.167 80.358C469.916 74.5633 468.291 67.9913 468.291 60.642C468.291 53.222 469.916 46.6147 473.167 40.82C476.488 35.0253 481.082 30.538 486.947 27.358C492.883 24.1073 499.667 22.482 507.299 22.482C514.931 22.482 521.68 24.1073 527.545 27.358C533.481 30.538 538.074 35.0253 541.325 40.82C544.646 46.544 546.307 53.1513 546.307 60.642C546.307 67.9913 544.646 74.5633 541.325 80.358C538.074 86.082 533.481 90.5693 527.545 93.82C521.609 97.0707 514.86 98.696 507.299 98.696ZM507.299 79.404C511.751 79.404 515.39 77.6727 518.217 74.21C521.114 70.7473 522.563 66.1893 522.563 60.536C522.563 56.7907 521.892 53.4693 520.549 50.572C519.277 47.604 517.475 45.3073 515.143 43.682C512.811 41.986 510.161 41.138 507.193 41.138C504.296 41.138 501.681 41.986 499.349 43.682C497.017 45.3073 495.215 47.604 493.943 50.572C492.671 53.4693 492.035 56.7907 492.035 60.536C492.035 66.1893 493.448 70.7473 496.275 74.21C499.102 77.6727 502.776 79.404 507.299 79.404ZM556.467 24.072H577.773L606.817 63.398V24.072H625.791V97H604.591L575.335 59.052V97H556.467V24.072Z" fill="black"/>
<path d="M346.227 24.072H397.425V40.184H371.985V53.434H395.199V66.79H371.985V80.888H397.425V97H346.227V24.072Z" fill="white"/>
<path d="M198.287 153.512C195.279 153.512 192.74 152.957 190.671 151.848L192.271 146.888C194.468 147.677 196.431 148.072 198.159 148.072C199.097 148.072 199.78 147.965 200.207 147.752C200.655 147.517 200.879 147.176 200.879 146.728C200.879 146.429 200.761 146.173 200.527 145.96C200.292 145.725 199.823 145.469 199.119 145.192C198.415 144.915 197.359 144.573 195.951 144.168C194.223 143.656 192.879 142.824 191.919 141.672C190.959 140.499 190.479 139.155 190.479 137.64C190.479 135.293 191.247 133.523 192.783 132.328C194.34 131.112 196.431 130.504 199.055 130.504C200.42 130.504 201.764 130.653 203.087 130.952C204.409 131.229 205.583 131.645 206.607 132.2L204.879 137.032C203.684 136.627 202.639 136.339 201.743 136.168C200.868 135.976 200.015 135.88 199.183 135.88C197.775 135.88 197.071 136.264 197.071 137.032C197.071 137.416 197.295 137.747 197.743 138.024C198.212 138.28 199.161 138.611 200.591 139.016C202.831 139.613 204.527 140.531 205.679 141.768C206.831 142.984 207.407 144.445 207.407 146.152C207.407 148.52 206.639 150.344 205.103 151.624C203.567 152.883 201.295 153.512 198.287 153.512ZM218.216 153.256C216.445 153.256 214.867 152.904 213.48 152.2C212.115 151.475 211.048 150.493 210.28 149.256C209.512 147.997 209.128 146.579 209.128 145C209.128 143.379 209.523 141.939 210.312 140.68C211.101 139.421 212.168 138.451 213.512 137.768C214.856 137.085 216.349 136.744 217.992 136.744C219.571 136.744 220.915 137.096 222.024 137.8C223.155 138.483 223.997 139.421 224.552 140.616C225.107 141.789 225.384 143.112 225.384 144.584C225.384 144.968 225.363 145.245 225.32 145.416L215.72 146.664C215.976 147.411 216.392 147.955 216.968 148.296C217.544 148.616 218.301 148.776 219.24 148.776C220.691 148.776 222.259 148.403 223.944 147.656L224.744 151.944C222.76 152.819 220.584 153.256 218.216 153.256ZM220.424 142.632C220.083 141.288 219.272 140.616 217.992 140.616C217.224 140.616 216.616 140.904 216.168 141.48C215.72 142.056 215.485 142.803 215.464 143.72L220.424 142.632ZM227.709 137.192H234.461V140.456C234.952 139.197 235.613 138.269 236.445 137.672C237.299 137.053 238.291 136.744 239.421 136.744L240.349 141.96C238.323 141.96 236.829 142.184 235.869 142.632C234.931 143.059 234.461 143.741 234.461 144.68V153H227.709V137.192ZM240.423 136.968H247.847L250.311 146.568L252.711 136.968H258.567L253.479 153H245.703L240.423 136.968ZM265.873 153.256C264.081 153.256 262.683 152.68 261.681 151.528C260.678 150.376 260.177 148.808 260.177 146.824V136.968H266.961V146.536C266.961 147.027 267.089 147.411 267.345 147.688C267.622 147.944 267.974 148.072 268.401 148.072C268.827 148.072 269.265 147.944 269.713 147.688L270.065 152.136C269.595 152.499 268.977 152.776 268.209 152.968C267.462 153.16 266.683 153.256 265.873 153.256ZM263.569 134.568C262.566 134.568 261.713 134.259 261.009 133.64C260.326 133 259.985 132.221 259.985 131.304C259.985 130.387 260.347 129.619 261.073 129C261.798 128.381 262.63 128.072 263.569 128.072C264.55 128.072 265.393 128.392 266.097 129.032C266.822 129.672 267.185 130.429 267.185 131.304C267.185 132.243 266.822 133.021 266.097 133.64C265.371 134.259 264.529 134.568 263.569 134.568ZM284.664 152.232C283.939 152.595 283.203 152.851 282.456 153C281.731 153.171 280.899 153.256 279.96 153.256L279.576 154.44C280.579 154.696 281.304 155.069 281.752 155.56C282.221 156.072 282.456 156.712 282.456 157.48C282.456 158.525 282.061 159.357 281.272 159.976C280.483 160.616 279.416 160.936 278.072 160.936C276.963 160.936 275.992 160.744 275.16 160.36L275.192 158.536C275.704 158.707 276.205 158.792 276.696 158.792C277.272 158.792 277.72 158.664 278.04 158.408C278.36 158.152 278.52 157.779 278.52 157.288C278.52 156.883 278.349 156.552 278.008 156.296C277.667 156.04 277.219 155.869 276.664 155.784L277.592 153.032C275.629 152.605 274.061 151.677 272.888 150.248C271.715 148.797 271.128 147.048 271.128 145C271.128 143.464 271.512 142.067 272.28 140.808C273.048 139.549 274.093 138.557 275.416 137.832C276.739 137.107 278.211 136.744 279.832 136.744C281.901 136.744 283.533 137.171 284.728 138.024L284.12 142.28C282.904 141.917 281.901 141.736 281.112 141.736C280.088 141.736 279.277 142.035 278.68 142.632C278.083 143.208 277.784 143.997 277.784 145C277.784 146.003 278.083 146.803 278.68 147.4C279.277 147.997 280.067 148.296 281.048 148.296C281.901 148.296 282.904 148.115 284.056 147.752L284.664 152.232ZM295.25 153.256C293.458 153.256 291.858 152.904 290.45 152.2C289.064 151.496 287.976 150.525 287.186 149.288C286.418 148.029 286.034 146.589 286.034 144.968C286.034 143.347 286.429 141.917 287.218 140.68C288.008 139.421 289.096 138.451 290.482 137.768C291.89 137.085 293.49 136.744 295.282 136.744C297.096 136.744 298.696 137.096 300.082 137.8C301.49 138.483 302.578 139.443 303.346 140.68C304.114 141.917 304.498 143.347 304.498 144.968C304.498 146.611 304.104 148.061 303.314 149.32C302.546 150.557 301.458 151.528 300.05 152.232C298.664 152.915 297.064 153.256 295.25 153.256ZM295.314 148.456C296.189 148.456 296.904 148.136 297.458 147.496C298.034 146.835 298.322 145.992 298.322 144.968C298.322 143.944 298.034 143.112 297.458 142.472C296.904 141.811 296.189 141.48 295.314 141.48C294.44 141.48 293.714 141.811 293.138 142.472C292.584 143.112 292.306 143.944 292.306 144.968C292.306 145.992 292.584 146.835 293.138 147.496C293.714 148.136 294.44 148.456 295.314 148.456ZM312.433 153.256C310.193 153.256 308.23 152.925 306.545 152.264L307.281 148.456C308.817 149.011 310.31 149.288 311.761 149.288C312.828 149.288 313.361 148.989 313.361 148.392C313.361 148.093 313.201 147.848 312.881 147.656C312.582 147.464 312.006 147.293 311.153 147.144C309.382 146.803 308.102 146.227 307.313 145.416C306.545 144.605 306.161 143.453 306.161 141.96C306.246 140.275 306.918 138.984 308.177 138.088C309.436 137.192 311.153 136.744 313.329 136.744C314.438 136.744 315.388 136.819 316.177 136.968C316.988 137.096 317.724 137.32 318.385 137.64L317.713 141.448C317.094 141.213 316.412 141.032 315.665 140.904C314.94 140.776 314.332 140.712 313.841 140.712C313.116 140.712 312.614 140.787 312.337 140.936C312.06 141.085 311.921 141.288 311.921 141.544C311.921 142.013 312.454 142.344 313.521 142.536C315.462 142.877 316.913 143.475 317.873 144.328C318.833 145.181 319.313 146.344 319.313 147.816C319.313 149.501 318.716 150.835 317.521 151.816C316.348 152.776 314.652 153.256 312.433 153.256ZM334.655 153.256C333.204 153.256 331.882 152.872 330.687 152.104C329.514 151.336 328.586 150.323 327.903 149.064C327.22 147.784 326.879 146.429 326.879 145C326.879 143.485 327.231 142.099 327.935 140.84C328.66 139.56 329.62 138.557 330.815 137.832C332.031 137.107 333.322 136.744 334.687 136.744C335.924 136.744 336.97 137 337.823 137.512C338.698 138.024 339.402 138.845 339.935 139.976V131.912L346.687 130.92V153H339.935V150.024C338.932 152.179 337.172 153.256 334.655 153.256ZM336.767 148.2C337.663 148.2 338.41 147.88 339.007 147.24C339.626 146.6 339.935 145.853 339.935 145V144.872C339.935 144.04 339.615 143.325 338.975 142.728C338.335 142.109 337.599 141.8 336.767 141.8C335.871 141.8 335.114 142.12 334.495 142.76C333.898 143.379 333.599 144.125 333.599 145C333.599 145.896 333.908 146.653 334.527 147.272C335.167 147.891 335.914 148.2 336.767 148.2ZM358.247 153.256C356.477 153.256 354.898 152.904 353.511 152.2C352.146 151.475 351.079 150.493 350.311 149.256C349.543 147.997 349.159 146.579 349.159 145C349.159 143.379 349.554 141.939 350.343 140.68C351.133 139.421 352.199 138.451 353.543 137.768C354.887 137.085 356.381 136.744 358.023 136.744C359.602 136.744 360.946 137.096 362.055 137.8C363.186 138.483 364.029 139.421 364.583 140.616C365.138 141.789 365.415 143.112 365.415 144.584C365.415 144.968 365.394 145.245 365.351 145.416L355.751 146.664C356.007 147.411 356.423 147.955 356.999 148.296C357.575 148.616 358.333 148.776 359.271 148.776C360.722 148.776 362.29 148.403 363.975 147.656L364.775 151.944C362.791 152.819 360.615 153.256 358.247 153.256ZM360.455 142.632C360.114 141.288 359.303 140.616 358.023 140.616C357.255 140.616 356.647 140.904 356.199 141.48C355.751 142.056 355.517 142.803 355.495 143.72L360.455 142.632ZM374.189 130.984H389.645V135.848H381.965V139.848H388.973V143.88H381.965V148.136H389.645V153H374.189V130.984ZM392.741 137.192H399.173V140.456C400.41 137.981 402.373 136.744 405.061 136.744C407.109 136.744 408.709 137.48 409.861 138.952C411.034 140.403 411.621 142.419 411.621 145V153H404.901V144.328C404.901 143.411 404.698 142.707 404.293 142.216C403.909 141.725 403.365 141.48 402.661 141.48C402.149 141.48 401.647 141.651 401.157 141.992C400.666 142.312 400.261 142.781 399.941 143.4C399.642 144.019 399.493 144.723 399.493 145.512V153H392.741V137.192ZM423.765 160.328C422.592 160.328 421.472 160.211 420.405 159.976L420.917 155.24C421.749 155.368 422.517 155.432 423.221 155.432C424.544 155.432 425.547 155.037 426.229 154.248C426.912 153.48 427.317 152.179 427.445 150.344C426.187 152.115 424.267 153 421.685 153C420.277 153 418.976 152.637 417.781 151.912C416.608 151.187 415.669 150.205 414.965 148.968C414.283 147.731 413.941 146.376 413.941 144.904C413.941 143.411 414.283 142.045 414.965 140.808C415.648 139.549 416.576 138.557 417.749 137.832C418.944 137.107 420.245 136.744 421.653 136.744C422.955 136.744 424.085 137.085 425.045 137.768C426.027 138.429 426.667 139.325 426.965 140.456V136.744H433.717V148.936C433.717 152.669 432.864 155.496 431.157 157.416C429.472 159.357 427.008 160.328 423.765 160.328ZM423.765 148.2C424.619 148.2 425.355 147.901 425.973 147.304C426.592 146.685 426.923 145.96 426.965 145.128V144.872C426.923 144.061 426.581 143.347 425.941 142.728C425.323 142.109 424.597 141.8 423.765 141.8C422.891 141.8 422.144 142.12 421.525 142.76C420.907 143.379 420.597 144.125 420.597 145C420.597 145.875 420.907 146.632 421.525 147.272C422.144 147.891 422.891 148.2 423.765 148.2ZM445.247 153.256C443.477 153.256 441.898 152.904 440.511 152.2C439.146 151.475 438.079 150.493 437.311 149.256C436.543 147.997 436.159 146.579 436.159 145C436.159 143.379 436.554 141.939 437.343 140.68C438.133 139.421 439.199 138.451 440.543 137.768C441.887 137.085 443.381 136.744 445.023 136.744C446.602 136.744 447.946 137.096 449.055 137.8C450.186 138.483 451.029 139.421 451.583 140.616C452.138 141.789 452.415 143.112 452.415 144.584C452.415 144.968 452.394 145.245 452.351 145.416L442.751 146.664C443.007 147.411 443.423 147.955 443.999 148.296C444.575 148.616 445.333 148.776 446.271 148.776C447.722 148.776 449.29 148.403 450.975 147.656L451.775 151.944C449.791 152.819 447.615 153.256 445.247 153.256ZM447.455 142.632C447.114 141.288 446.303 140.616 445.023 140.616C444.255 140.616 443.647 140.904 443.199 141.48C442.751 142.056 442.517 142.803 442.495 143.72L447.455 142.632ZM454.741 137.192H461.173V140.456C462.41 137.981 464.373 136.744 467.061 136.744C469.109 136.744 470.709 137.48 471.861 138.952C473.034 140.403 473.621 142.419 473.621 145V153H466.901V144.328C466.901 143.411 466.698 142.707 466.293 142.216C465.909 141.725 465.365 141.48 464.661 141.48C464.149 141.48 463.647 141.651 463.157 141.992C462.666 142.312 462.261 142.781 461.941 143.4C461.642 144.019 461.493 144.723 461.493 145.512V153H454.741V137.192ZM476.709 131.912L483.461 130.92V140.264C483.931 139.133 484.635 138.269 485.573 137.672C486.533 137.053 487.685 136.744 489.029 136.744C491.077 136.744 492.677 137.48 493.829 138.952C495.003 140.403 495.589 142.419 495.589 145V153H488.869V144.328C488.869 143.411 488.667 142.707 488.261 142.216C487.877 141.725 487.333 141.48 486.629 141.48C486.117 141.48 485.616 141.651 485.125 141.992C484.635 142.312 484.229 142.781 483.909 143.4C483.611 144.019 483.461 144.723 483.461 145.512V153H476.709V131.912ZM505.75 153.256C504.363 153.256 503.062 152.893 501.846 152.168C500.651 151.421 499.691 150.419 498.966 149.16C498.241 147.88 497.878 146.461 497.878 144.904C497.878 143.368 498.241 141.981 498.966 140.744C499.691 139.485 500.662 138.504 501.878 137.8C503.094 137.096 504.385 136.744 505.75 136.744C506.859 136.744 507.883 137.053 508.822 137.672C509.782 138.291 510.507 139.219 510.998 140.456V136.744H517.718V153H510.998V150.024C509.931 152.179 508.182 153.256 505.75 153.256ZM507.83 148.2C508.683 148.2 509.409 147.901 510.006 147.304C510.625 146.685 510.955 145.96 510.998 145.128V144.872C510.955 144.019 510.614 143.293 509.974 142.696C509.355 142.099 508.641 141.8 507.83 141.8C506.934 141.8 506.166 142.12 505.526 142.76C504.907 143.379 504.598 144.125 504.598 145C504.598 145.896 504.918 146.653 505.558 147.272C506.198 147.891 506.955 148.2 507.83 148.2ZM520.959 137.192H527.711V140.456C528.202 139.197 528.863 138.269 529.695 137.672C530.549 137.053 531.541 136.744 532.671 136.744L533.599 141.96C531.573 141.96 530.079 142.184 529.119 142.632C528.181 143.059 527.711 143.741 527.711 144.68V153H520.959V137.192ZM540.873 153.256C539.081 153.256 537.683 152.68 536.681 151.528C535.678 150.376 535.177 148.808 535.177 146.824V136.968H541.961V146.536C541.961 147.027 542.089 147.411 542.345 147.688C542.622 147.944 542.974 148.072 543.401 148.072C543.827 148.072 544.265 147.944 544.713 147.688L545.065 152.136C544.595 152.499 543.977 152.776 543.209 152.968C542.462 153.16 541.683 153.256 540.873 153.256ZM538.569 134.568C537.566 134.568 536.713 134.259 536.009 133.64C535.326 133 534.985 132.221 534.985 131.304C534.985 130.387 535.347 129.619 536.073 129C536.798 128.381 537.63 128.072 538.569 128.072C539.55 128.072 540.393 128.392 541.097 129.032C541.822 129.672 542.185 130.429 542.185 131.304C542.185 132.243 541.822 133.021 541.097 133.64C540.371 134.259 539.529 134.568 538.569 134.568ZM554 153.256C552.613 153.256 551.312 152.893 550.096 152.168C548.901 151.421 547.941 150.419 547.216 149.16C546.491 147.88 546.128 146.461 546.128 144.904C546.128 143.368 546.491 141.981 547.216 140.744C547.941 139.485 548.912 138.504 550.128 137.8C551.344 137.096 552.635 136.744 554 136.744C555.109 136.744 556.133 137.053 557.072 137.672C558.032 138.291 558.757 139.219 559.248 140.456V136.744H565.968V153H559.248V150.024C558.181 152.179 556.432 153.256 554 153.256ZM556.08 148.2C556.933 148.2 557.659 147.901 558.256 147.304C558.875 146.685 559.205 145.96 559.248 145.128V144.872C559.205 144.019 558.864 143.293 558.224 142.696C557.605 142.099 556.891 141.8 556.08 141.8C555.184 141.8 554.416 142.12 553.776 142.76C553.157 143.379 552.848 144.125 552.848 145C552.848 145.896 553.168 146.653 553.808 147.272C554.448 147.891 555.205 148.2 556.08 148.2Z" fill="black"/>
</svg>
