<svg width="756" height="161" viewBox="0 0 756 161" fill="none" xmlns="http://www.w3.org/2000/svg">
<rect x="340" y="4" width="63" height="113.806" rx="4" fill="black"/>
<path d="M130.19 24.072H181.388V40.184H155.948V53.434H179.162V66.79H155.948V80.888H181.388V97H130.19V24.072ZM193.231 24.072H214.537L243.581 63.398V24.072H262.555V97H241.355L212.099 59.052V97H193.231V24.072ZM310.274 98.696C303.137 98.696 296.706 97 290.982 93.608C285.258 90.1453 280.771 85.446 277.52 79.51C274.269 73.574 272.644 67.0373 272.644 59.9C272.644 53.0453 274.269 46.756 277.52 41.032C280.841 35.308 285.435 30.7853 291.3 27.464C297.165 24.1427 303.843 22.482 311.334 22.482C315.433 22.482 319.39 22.9413 323.206 23.86C327.093 24.7787 330.591 26.086 333.7 27.782L326.704 44.212C321.899 42.2333 317.411 41.244 313.242 41.244C307.801 41.244 303.596 43.0107 300.628 46.544C297.66 50.0067 296.176 54.5647 296.176 60.218C296.176 63.8927 296.847 67.214 298.19 70.182C299.533 73.0793 301.405 75.376 303.808 77.072C306.281 78.768 309.073 79.616 312.182 79.616C313.878 79.616 315.291 79.4747 316.422 79.192V62.126L334.76 60.006V93.184C326.775 96.8587 318.613 98.696 310.274 98.696ZM443.612 98.696C436.545 98.696 430.115 97.0353 424.32 93.714C418.596 90.322 414.038 85.7287 410.646 79.934C407.325 74.0687 405.664 67.6027 405.664 60.536C405.664 53.328 407.289 46.8267 410.54 41.032C413.791 35.2373 418.243 30.7147 423.896 27.464C429.549 24.1427 435.909 22.482 442.976 22.482C446.792 22.482 450.537 22.9413 454.212 23.86C457.887 24.7787 461.031 26.086 463.646 27.782L460.784 44.212C455.696 42.304 451.103 41.35 447.004 41.35C441.351 41.35 437.005 43.0107 433.966 46.332C430.927 49.5827 429.408 54.282 429.408 60.43C429.408 66.4367 430.998 71.136 434.178 74.528C437.429 77.8493 441.916 79.51 447.64 79.51C449.831 79.51 451.88 79.298 453.788 78.874C455.696 78.45 458.028 77.6727 460.784 76.542L463.752 93.29C457.604 96.894 450.891 98.696 443.612 98.696ZM507.299 98.696C499.667 98.696 492.883 97.0707 486.947 93.82C481.082 90.5693 476.488 86.082 473.167 80.358C469.916 74.5633 468.291 67.9913 468.291 60.642C468.291 53.222 469.916 46.6147 473.167 40.82C476.488 35.0253 481.082 30.538 486.947 27.358C492.883 24.1073 499.667 22.482 507.299 22.482C514.931 22.482 521.68 24.1073 527.545 27.358C533.481 30.538 538.074 35.0253 541.325 40.82C544.646 46.544 546.307 53.1513 546.307 60.642C546.307 67.9913 544.646 74.5633 541.325 80.358C538.074 86.082 533.481 90.5693 527.545 93.82C521.609 97.0707 514.86 98.696 507.299 98.696ZM507.299 79.404C511.751 79.404 515.39 77.6727 518.217 74.21C521.114 70.7473 522.563 66.1893 522.563 60.536C522.563 56.7907 521.892 53.4693 520.549 50.572C519.277 47.604 517.475 45.3073 515.143 43.682C512.811 41.986 510.161 41.138 507.193 41.138C504.296 41.138 501.681 41.986 499.349 43.682C497.017 45.3073 495.215 47.604 493.943 50.572C492.671 53.4693 492.035 56.7907 492.035 60.536C492.035 66.1893 493.448 70.7473 496.275 74.21C499.102 77.6727 502.776 79.404 507.299 79.404ZM556.467 24.072H577.773L606.817 63.398V24.072H625.791V97H604.591L575.335 59.052V97H556.467V24.072Z" fill="black"/>
<path d="M346.227 24.072H397.425V40.184H371.985V53.434H395.199V66.79H371.985V80.888H397.425V97H346.227V24.072Z" fill="white"/>
<path d="M199.23 153.256C196.99 153.256 195.027 152.925 193.342 152.264L194.078 148.456C195.614 149.011 197.107 149.288 198.558 149.288C199.624 149.288 200.158 148.989 200.158 148.392C200.158 148.093 199.998 147.848 199.678 147.656C199.379 147.464 198.803 147.293 197.95 147.144C196.179 146.803 194.899 146.227 194.11 145.416C193.342 144.605 192.958 143.453 192.958 141.96C193.043 140.275 193.715 138.984 194.974 138.088C196.232 137.192 197.95 136.744 200.126 136.744C201.235 136.744 202.184 136.819 202.974 136.968C203.784 137.096 204.52 137.32 205.182 137.64L204.51 141.448C203.891 141.213 203.208 141.032 202.462 140.904C201.736 140.776 201.128 140.712 200.638 140.712C199.912 140.712 199.411 140.787 199.134 140.936C198.856 141.085 198.718 141.288 198.718 141.544C198.718 142.013 199.251 142.344 200.318 142.536C202.259 142.877 203.71 143.475 204.67 144.328C205.63 145.181 206.11 146.344 206.11 147.816C206.11 149.501 205.512 150.835 204.318 151.816C203.144 152.776 201.448 153.256 199.23 153.256ZM216.763 153.256C214.992 153.256 213.414 152.904 212.027 152.2C210.662 151.475 209.595 150.493 208.827 149.256C208.059 147.997 207.675 146.579 207.675 145C207.675 143.379 208.07 141.939 208.859 140.68C209.648 139.421 210.715 138.451 212.059 137.768C213.403 137.085 214.896 136.744 216.539 136.744C218.118 136.744 219.462 137.096 220.571 137.8C221.702 138.483 222.544 139.421 223.099 140.616C223.654 141.789 223.931 143.112 223.931 144.584C223.931 144.968 223.91 145.245 223.867 145.416L214.267 146.664C214.523 147.411 214.939 147.955 215.515 148.296C216.091 148.616 216.848 148.776 217.787 148.776C219.238 148.776 220.806 148.403 222.491 147.656L223.291 151.944C221.307 152.819 219.131 153.256 216.763 153.256ZM218.971 142.632C218.63 141.288 217.819 140.616 216.539 140.616C215.771 140.616 215.163 140.904 214.715 141.48C214.267 142.056 214.032 142.803 214.011 143.72L218.971 142.632ZM226.256 137.192H233.008V140.456C233.499 139.197 234.16 138.269 234.992 137.672C235.846 137.053 236.838 136.744 237.968 136.744L238.896 141.96C236.87 141.96 235.376 142.184 234.416 142.632C233.478 143.059 233.008 143.741 233.008 144.68V153H226.256V137.192ZM238.97 136.968H246.394L248.858 146.568L251.258 136.968H257.114L252.026 153H244.25L238.97 136.968ZM264.42 153.256C262.628 153.256 261.23 152.68 260.228 151.528C259.225 150.376 258.724 148.808 258.724 146.824V136.968H265.508V146.536C265.508 147.027 265.636 147.411 265.892 147.688C266.169 147.944 266.521 148.072 266.948 148.072C267.374 148.072 267.812 147.944 268.26 147.688L268.612 152.136C268.142 152.499 267.524 152.776 266.756 152.968C266.009 153.16 265.23 153.256 264.42 153.256ZM262.116 134.568C261.113 134.568 260.26 134.259 259.556 133.64C258.873 133 258.532 132.221 258.532 131.304C258.532 130.387 258.894 129.619 259.62 129C260.345 128.381 261.177 128.072 262.116 128.072C263.097 128.072 263.94 128.392 264.644 129.032C265.369 129.672 265.732 130.429 265.732 131.304C265.732 132.243 265.369 133.021 264.644 133.64C263.918 134.259 263.076 134.568 262.116 134.568ZM283.211 152.232C282.486 152.595 281.75 152.851 281.003 153C280.278 153.171 279.446 153.256 278.507 153.256L278.123 154.44C279.126 154.696 279.851 155.069 280.299 155.56C280.768 156.072 281.003 156.712 281.003 157.48C281.003 158.525 280.608 159.357 279.819 159.976C279.03 160.616 277.963 160.936 276.619 160.936C275.51 160.936 274.539 160.744 273.707 160.36L273.739 158.536C274.251 158.707 274.752 158.792 275.243 158.792C275.819 158.792 276.267 158.664 276.587 158.408C276.907 158.152 277.067 157.779 277.067 157.288C277.067 156.883 276.896 156.552 276.555 156.296C276.214 156.04 275.766 155.869 275.211 155.784L276.139 153.032C274.176 152.605 272.608 151.677 271.435 150.248C270.262 148.797 269.675 147.048 269.675 145C269.675 143.464 270.059 142.067 270.827 140.808C271.595 139.549 272.64 138.557 273.963 137.832C275.286 137.107 276.758 136.744 278.379 136.744C280.448 136.744 282.08 137.171 283.275 138.024L282.667 142.28C281.451 141.917 280.448 141.736 279.659 141.736C278.635 141.736 277.824 142.035 277.227 142.632C276.63 143.208 276.331 143.997 276.331 145C276.331 146.003 276.63 146.803 277.227 147.4C277.824 147.997 278.614 148.296 279.595 148.296C280.448 148.296 281.451 148.115 282.603 147.752L283.211 152.232ZM293.797 153.256C292.005 153.256 290.405 152.904 288.997 152.2C287.611 151.496 286.523 150.525 285.733 149.288C284.965 148.029 284.581 146.589 284.581 144.968C284.581 143.347 284.976 141.917 285.765 140.68C286.555 139.421 287.643 138.451 289.029 137.768C290.437 137.085 292.037 136.744 293.829 136.744C295.643 136.744 297.243 137.096 298.629 137.8C300.037 138.483 301.125 139.443 301.893 140.68C302.661 141.917 303.045 143.347 303.045 144.968C303.045 146.611 302.651 148.061 301.861 149.32C301.093 150.557 300.005 151.528 298.597 152.232C297.211 152.915 295.611 153.256 293.797 153.256ZM293.861 148.456C294.736 148.456 295.451 148.136 296.005 147.496C296.581 146.835 296.869 145.992 296.869 144.968C296.869 143.944 296.581 143.112 296.005 142.472C295.451 141.811 294.736 141.48 293.861 141.48C292.987 141.48 292.261 141.811 291.685 142.472C291.131 143.112 290.853 143.944 290.853 144.968C290.853 145.992 291.131 146.835 291.685 147.496C292.261 148.136 292.987 148.456 293.861 148.456ZM310.98 153.256C308.74 153.256 306.777 152.925 305.092 152.264L305.828 148.456C307.364 149.011 308.857 149.288 310.308 149.288C311.374 149.288 311.908 148.989 311.908 148.392C311.908 148.093 311.748 147.848 311.428 147.656C311.129 147.464 310.553 147.293 309.7 147.144C307.929 146.803 306.649 146.227 305.86 145.416C305.092 144.605 304.708 143.453 304.708 141.96C304.793 140.275 305.465 138.984 306.724 138.088C307.982 137.192 309.7 136.744 311.876 136.744C312.985 136.744 313.934 136.819 314.724 136.968C315.534 137.096 316.27 137.32 316.932 137.64L316.26 141.448C315.641 141.213 314.958 141.032 314.212 140.904C313.486 140.776 312.878 140.712 312.388 140.712C311.662 140.712 311.161 140.787 310.884 140.936C310.606 141.085 310.468 141.288 310.468 141.544C310.468 142.013 311.001 142.344 312.068 142.536C314.009 142.877 315.46 143.475 316.42 144.328C317.38 145.181 317.86 146.344 317.86 147.816C317.86 149.501 317.262 150.835 316.068 151.816C314.894 152.776 313.198 153.256 310.98 153.256ZM333.202 153.256C331.751 153.256 330.428 152.872 329.234 152.104C328.06 151.336 327.132 150.323 326.45 149.064C325.767 147.784 325.426 146.429 325.426 145C325.426 143.485 325.778 142.099 326.482 140.84C327.207 139.56 328.167 138.557 329.362 137.832C330.578 137.107 331.868 136.744 333.234 136.744C334.471 136.744 335.516 137 336.37 137.512C337.244 138.024 337.948 138.845 338.482 139.976V131.912L345.234 130.92V153H338.482V150.024C337.479 152.179 335.719 153.256 333.202 153.256ZM335.314 148.2C336.21 148.2 336.956 147.88 337.554 147.24C338.172 146.6 338.482 145.853 338.482 145V144.872C338.482 144.04 338.162 143.325 337.522 142.728C336.882 142.109 336.146 141.8 335.314 141.8C334.418 141.8 333.66 142.12 333.042 142.76C332.444 143.379 332.146 144.125 332.146 145C332.146 145.896 332.455 146.653 333.074 147.272C333.714 147.891 334.46 148.2 335.314 148.2ZM356.794 153.256C355.024 153.256 353.445 152.904 352.058 152.2C350.693 151.475 349.626 150.493 348.858 149.256C348.09 147.997 347.706 146.579 347.706 145C347.706 143.379 348.101 141.939 348.89 140.68C349.68 139.421 350.746 138.451 352.09 137.768C353.434 137.085 354.928 136.744 356.57 136.744C358.149 136.744 359.493 137.096 360.602 137.8C361.733 138.483 362.576 139.421 363.13 140.616C363.685 141.789 363.962 143.112 363.962 144.584C363.962 144.968 363.941 145.245 363.898 145.416L354.298 146.664C354.554 147.411 354.97 147.955 355.546 148.296C356.122 148.616 356.88 148.776 357.818 148.776C359.269 148.776 360.837 148.403 362.522 147.656L363.322 151.944C361.338 152.819 359.162 153.256 356.794 153.256ZM359.002 142.632C358.661 141.288 357.85 140.616 356.57 140.616C355.802 140.616 355.194 140.904 354.746 141.48C354.298 142.056 354.064 142.803 354.042 143.72L359.002 142.632ZM380.544 153.256C378.774 153.256 377.195 152.904 375.808 152.2C374.443 151.475 373.376 150.493 372.608 149.256C371.84 147.997 371.456 146.579 371.456 145C371.456 143.379 371.851 141.939 372.64 140.68C373.43 139.421 374.496 138.451 375.84 137.768C377.184 137.085 378.678 136.744 380.32 136.744C381.899 136.744 383.243 137.096 384.352 137.8C385.483 138.483 386.326 139.421 386.88 140.616C387.435 141.789 387.712 143.112 387.712 144.584C387.712 144.968 387.691 145.245 387.648 145.416L378.048 146.664C378.304 147.411 378.72 147.955 379.296 148.296C379.872 148.616 380.63 148.776 381.568 148.776C383.019 148.776 384.587 148.403 386.272 147.656L387.072 151.944C385.088 152.819 382.912 153.256 380.544 153.256ZM382.752 142.632C382.411 141.288 381.6 140.616 380.32 140.616C379.552 140.616 378.944 140.904 378.496 141.48C378.048 142.056 377.814 142.803 377.792 143.72L382.752 142.632ZM390.038 137.192H396.47V140.456C397.707 137.981 399.67 136.744 402.358 136.744C404.406 136.744 406.006 137.48 407.158 138.952C408.331 140.403 408.918 142.419 408.918 145V153H402.198V144.328C402.198 143.411 401.995 142.707 401.59 142.216C401.206 141.725 400.662 141.48 399.958 141.48C399.446 141.48 398.944 141.651 398.454 141.992C397.963 142.312 397.558 142.781 397.238 143.4C396.939 144.019 396.79 144.723 396.79 145.512V153H390.038V137.192ZM421.062 160.328C419.889 160.328 418.769 160.211 417.702 159.976L418.214 155.24C419.046 155.368 419.814 155.432 420.518 155.432C421.841 155.432 422.844 155.037 423.526 154.248C424.209 153.48 424.614 152.179 424.742 150.344C423.484 152.115 421.564 153 418.982 153C417.574 153 416.273 152.637 415.078 151.912C413.905 151.187 412.966 150.205 412.262 148.968C411.58 147.731 411.238 146.376 411.238 144.904C411.238 143.411 411.58 142.045 412.262 140.808C412.945 139.549 413.873 138.557 415.046 137.832C416.241 137.107 417.542 136.744 418.95 136.744C420.252 136.744 421.382 137.085 422.342 137.768C423.324 138.429 423.964 139.325 424.262 140.456V136.744H431.014V148.936C431.014 152.669 430.161 155.496 428.454 157.416C426.769 159.357 424.305 160.328 421.062 160.328ZM421.062 148.2C421.916 148.2 422.652 147.901 423.27 147.304C423.889 146.685 424.22 145.96 424.262 145.128V144.872C424.22 144.061 423.878 143.347 423.238 142.728C422.62 142.109 421.894 141.8 421.062 141.8C420.188 141.8 419.441 142.12 418.822 142.76C418.204 143.379 417.894 144.125 417.894 145C417.894 145.875 418.204 146.632 418.822 147.272C419.441 147.891 420.188 148.2 421.062 148.2ZM442.544 153.256C440.774 153.256 439.195 152.904 437.808 152.2C436.443 151.475 435.376 150.493 434.608 149.256C433.84 147.997 433.456 146.579 433.456 145C433.456 143.379 433.851 141.939 434.64 140.68C435.43 139.421 436.496 138.451 437.84 137.768C439.184 137.085 440.678 136.744 442.32 136.744C443.899 136.744 445.243 137.096 446.352 137.8C447.483 138.483 448.326 139.421 448.88 140.616C449.435 141.789 449.712 143.112 449.712 144.584C449.712 144.968 449.691 145.245 449.648 145.416L440.048 146.664C440.304 147.411 440.72 147.955 441.296 148.296C441.872 148.616 442.63 148.776 443.568 148.776C445.019 148.776 446.587 148.403 448.272 147.656L449.072 151.944C447.088 152.819 444.912 153.256 442.544 153.256ZM444.752 142.632C444.411 141.288 443.6 140.616 442.32 140.616C441.552 140.616 440.944 140.904 440.496 141.48C440.048 142.056 439.814 142.803 439.792 143.72L444.752 142.632ZM452.038 137.192H458.47V140.456C459.707 137.981 461.67 136.744 464.358 136.744C466.406 136.744 468.006 137.48 469.158 138.952C470.331 140.403 470.918 142.419 470.918 145V153H464.198V144.328C464.198 143.411 463.995 142.707 463.59 142.216C463.206 141.725 462.662 141.48 461.958 141.48C461.446 141.48 460.944 141.651 460.454 141.992C459.963 142.312 459.558 142.781 459.238 143.4C458.939 144.019 458.79 144.723 458.79 145.512V153H452.038V137.192ZM474.006 131.912L480.758 130.92V140.264C481.228 139.133 481.932 138.269 482.87 137.672C483.83 137.053 484.982 136.744 486.326 136.744C488.374 136.744 489.974 137.48 491.126 138.952C492.3 140.403 492.886 142.419 492.886 145V153H486.166V144.328C486.166 143.411 485.964 142.707 485.558 142.216C485.174 141.725 484.63 141.48 483.926 141.48C483.414 141.48 482.913 141.651 482.422 141.992C481.932 142.312 481.526 142.781 481.206 143.4C480.908 144.019 480.758 144.723 480.758 145.512V153H474.006V131.912ZM503.047 153.256C501.66 153.256 500.359 152.893 499.143 152.168C497.948 151.421 496.988 150.419 496.263 149.16C495.538 147.88 495.175 146.461 495.175 144.904C495.175 143.368 495.538 141.981 496.263 140.744C496.988 139.485 497.959 138.504 499.175 137.8C500.391 137.096 501.682 136.744 503.047 136.744C504.156 136.744 505.18 137.053 506.119 137.672C507.079 138.291 507.804 139.219 508.295 140.456V136.744H515.015V153H508.295V150.024C507.228 152.179 505.479 153.256 503.047 153.256ZM505.127 148.2C505.98 148.2 506.706 147.901 507.303 147.304C507.922 146.685 508.252 145.96 508.295 145.128V144.872C508.252 144.019 507.911 143.293 507.271 142.696C506.652 142.099 505.938 141.8 505.127 141.8C504.231 141.8 503.463 142.12 502.823 142.76C502.204 143.379 501.895 144.125 501.895 145C501.895 145.896 502.215 146.653 502.855 147.272C503.495 147.891 504.252 148.2 505.127 148.2ZM518.256 137.192H525.008V140.456C525.499 139.197 526.16 138.269 526.992 137.672C527.846 137.053 528.838 136.744 529.968 136.744L530.896 141.96C528.87 141.96 527.376 142.184 526.416 142.632C525.478 143.059 525.008 143.741 525.008 144.68V153H518.256V137.192ZM538.17 153.256C536.378 153.256 534.98 152.68 533.978 151.528C532.975 150.376 532.474 148.808 532.474 146.824V136.968H539.258V146.536C539.258 147.027 539.386 147.411 539.642 147.688C539.919 147.944 540.271 148.072 540.698 148.072C541.124 148.072 541.562 147.944 542.01 147.688L542.362 152.136C541.892 152.499 541.274 152.776 540.506 152.968C539.759 153.16 538.98 153.256 538.17 153.256ZM535.866 134.568C534.863 134.568 534.01 134.259 533.306 133.64C532.623 133 532.282 132.221 532.282 131.304C532.282 130.387 532.644 129.619 533.37 129C534.095 128.381 534.927 128.072 535.866 128.072C536.847 128.072 537.69 128.392 538.394 129.032C539.119 129.672 539.482 130.429 539.482 131.304C539.482 132.243 539.119 133.021 538.394 133.64C537.668 134.259 536.826 134.568 535.866 134.568ZM551.297 153.256C549.91 153.256 548.609 152.893 547.393 152.168C546.198 151.421 545.238 150.419 544.513 149.16C543.788 147.88 543.425 146.461 543.425 144.904C543.425 143.368 543.788 141.981 544.513 140.744C545.238 139.485 546.209 138.504 547.425 137.8C548.641 137.096 549.932 136.744 551.297 136.744C552.406 136.744 553.43 137.053 554.369 137.672C555.329 138.291 556.054 139.219 556.545 140.456V136.744H563.265V153H556.545V150.024C555.478 152.179 553.729 153.256 551.297 153.256ZM553.377 148.2C554.23 148.2 554.956 147.901 555.553 147.304C556.172 146.685 556.502 145.96 556.545 145.128V144.872C556.502 144.019 556.161 143.293 555.521 142.696C554.902 142.099 554.188 141.8 553.377 141.8C552.481 141.8 551.713 142.12 551.073 142.76C550.454 143.379 550.145 144.125 550.145 145C550.145 145.896 550.465 146.653 551.105 147.272C551.745 147.891 552.502 148.2 553.377 148.2Z" fill="black"/>
</svg>
