<svg width="503" height="121" viewBox="0 0 503 121" fill="none" xmlns="http://www.w3.org/2000/svg">
<rect x="215" y="4" width="62" height="116.386" rx="4" fill="white"/>
<path d="M9.25481 97V24.072H60.4528V40.184H35.0128V53.116H58.2268V66.472H35.0128V80.358H60.4528V97H9.25481ZM70.0185 97V24.072H91.2185L119.838 62.762V24.072H139.342V97H118.142L89.5225 59.9V97H70.0185ZM185.524 98.696C177.892 98.696 171.249 97.1413 165.596 94.032C160.013 90.9227 155.667 86.612 152.558 81.1C149.448 75.588 147.894 69.228 147.894 62.02C147.894 54.3173 149.519 47.498 152.77 41.562C156.02 35.626 160.578 30.962 166.444 27.57C172.309 24.178 179.128 22.482 186.902 22.482C195.382 22.482 202.13 24.178 207.148 27.57L203.968 44.212C199.516 42.304 194.887 41.35 190.082 41.35C184.287 41.35 179.729 43.0813 176.408 46.544C173.086 50.0067 171.426 54.812 171.426 60.96C171.426 67.1787 172.91 72.0193 175.878 75.482C178.916 78.9447 182.768 80.676 187.432 80.676C189.128 80.676 190.541 80.5347 191.672 80.252V62.126L210.01 60.006V93.184C205.982 95.0213 201.883 96.3993 197.714 97.318C193.544 98.2367 189.481 98.696 185.524 98.696ZM316.168 98.696C308.536 98.696 301.858 97.1767 296.134 94.138C290.481 91.0287 286.064 86.6827 282.884 81.1C279.775 75.5173 278.22 69.016 278.22 61.596C278.22 53.964 279.845 47.2153 283.096 41.35C286.417 35.4847 290.94 30.8913 296.664 27.57C302.459 24.178 309.101 22.482 316.592 22.482C324.931 22.482 331.467 24.1073 336.202 27.358L333.34 44.212C331.291 43.2227 329.135 42.516 326.874 42.092C324.683 41.5973 322.599 41.35 320.62 41.35C314.825 41.35 310.267 43.0813 306.946 46.544C303.625 50.0067 301.964 54.812 301.964 60.96C301.964 66.7547 303.554 71.3127 306.734 74.634C309.985 77.8847 314.472 79.51 320.196 79.51C322.457 79.51 324.507 79.298 326.344 78.874C328.252 78.45 330.584 77.6727 333.34 76.542L336.308 93.29C330.16 96.894 323.447 98.696 316.168 98.696ZM376.853 98.696C369.15 98.696 362.366 97.0707 356.501 93.82C350.636 90.5693 346.042 86.082 342.721 80.358C339.47 74.634 337.845 68.062 337.845 60.642C337.845 53.1513 339.47 46.544 342.721 40.82C346.042 35.096 350.636 30.6087 356.501 27.358C362.366 24.1073 369.15 22.482 376.853 22.482C384.556 22.482 391.34 24.1073 397.205 27.358C403.07 30.538 407.628 34.99 410.879 40.714C414.2 46.438 415.861 53.0807 415.861 60.642C415.861 68.062 414.2 74.634 410.879 80.358C407.628 86.082 403.07 90.5693 397.205 93.82C391.34 97.0707 384.556 98.696 376.853 98.696ZM376.853 79.404C381.305 79.404 384.944 77.6727 387.771 74.21C390.668 70.7473 392.117 66.1893 392.117 60.536C392.117 56.72 391.446 53.3633 390.103 50.466C388.831 47.5687 387.029 45.3073 384.697 43.682C382.436 41.986 379.786 41.138 376.747 41.138C372.295 41.138 368.656 42.94 365.829 46.544C363.002 50.0773 361.589 54.7413 361.589 60.536C361.589 66.1893 363.002 70.7473 365.829 74.21C368.656 77.6727 372.33 79.404 376.853 79.404ZM424.456 97V24.072H445.656L474.276 62.762V24.072H493.78V97H472.58L443.96 59.9V97H424.456Z" fill="white"/>
<path d="M220.53 97V24.072H271.728V40.184H246.288V53.116H269.502V66.472H246.288V80.358H271.728V97H220.53Z" fill="black"/>
</svg>
